<?xml version="1.0" encoding="UTF-8" standalone="no"?>
<!-- Generator: Adobe Illustrator 16.0.0, SVG Export Plug-In . SVG Version: 6.00 Build 0)  -->

<svg
   xmlns:dc="http://purl.org/dc/elements/1.1/"
   xmlns:cc="http://creativecommons.org/ns#"
   xmlns:rdf="http://www.w3.org/1999/02/22-rdf-syntax-ns#"
   xmlns:svg="http://www.w3.org/2000/svg"
   xmlns="http://www.w3.org/2000/svg"
   xmlns:sodipodi="http://sodipodi.sourceforge.net/DTD/sodipodi-0.dtd"
   xmlns:inkscape="http://www.inkscape.org/namespaces/inkscape"
   version="1.1"
   id="Capa_1"
   x="0px"
   y="0px"
   width="35.318px"
   height="35.318px"
   viewBox="0 0 35.318 35.318"
   style="enable-background:new 0 0 35.318 35.318;"
   xml:space="preserve"
   inkscape:version="0.91 r13725"
   sodipodi:docname="github17.svg"><metadata
     id="metadata41"><rdf:RDF><cc:Work
         rdf:about=""><dc:format>image/svg+xml</dc:format><dc:type
           rdf:resource="http://purl.org/dc/dcmitype/StillImage" /></cc:Work></rdf:RDF></metadata><defs
     id="defs39" /><sodipodi:namedview
     pagecolor="#ffffff"
     bordercolor="#666666"
     borderopacity="1"
     objecttolerance="10"
     gridtolerance="10"
     guidetolerance="10"
     inkscape:pageopacity="0"
     inkscape:pageshadow="2"
     inkscape:window-width="1280"
     inkscape:window-height="701"
     id="namedview37"
     showgrid="false"
     inkscape:zoom="6.6821449"
     inkscape:cx="17.659"
     inkscape:cy="17.659"
     inkscape:window-x="0"
     inkscape:window-y="27"
     inkscape:window-maximized="1"
     inkscape:current-layer="g3" /><g
     id="g3"><path
       d="M23.71,34.689c-0.172,0.062-0.345,0.137-0.522,0.168c-0.678,0.121-1.112-0.229-1.116-0.922   c-0.009-1.287-0.009-2.572,0.012-3.859c0.022-1.48-0.012-2.941-1.139-4.162c0.67-0.12,1.266-0.204,1.849-0.338   c3.862-0.887,5.868-3.323,6.124-7.366c0.131-2.058-0.236-3.946-1.604-5.567c-0.099-0.114-0.104-0.373-0.057-0.539   c0.364-1.34,0.258-2.649-0.166-3.959c-0.105-0.327-0.279-0.428-0.602-0.407c-1.134,0.063-2.173,0.461-3.089,1.073   c-0.883,0.593-1.705,0.722-2.754,0.482c-2.31-0.521-4.635-0.369-6.94,0.165c-0.261,0.062-0.612-0.021-0.851-0.161   c-1.082-0.634-2.164-1.25-3.412-1.496c-0.965-0.188-1.049-0.14-1.305,0.793C7.816,9.77,7.784,10.947,8.113,12.13   c0.047,0.172-0.002,0.448-0.117,0.575c-2.557,2.853-1.631,8.244,0.092,10.309c1.34,1.604,3.12,2.326,5.096,2.701   c0.345,0.064,0.688,0.113,1.033,0.173c-0.296,0.77-0.562,1.497-0.863,2.212c-0.059,0.138-0.246,0.254-0.399,0.312   c-1.938,0.752-3.604,0.199-4.713-1.56c-0.593-0.938-1.354-1.639-2.488-1.842c-0.036-0.007-0.073-0.026-0.106-0.021   c-0.305,0.08-0.607,0.164-0.911,0.246c0.171,0.238,0.292,0.558,0.521,0.701c0.961,0.608,1.586,1.475,1.999,2.498   c0.649,1.604,1.909,2.319,3.546,2.459c0.799,0.065,1.606,0.01,2.481,0.01c0,0.996,0.036,2.133-0.015,3.265   c-0.026,0.61-0.639,0.854-1.373,0.604c-1.947-0.666-3.752-1.621-5.311-2.963C0.956,26.96-1.214,20.83,0.657,13.655   C2.522,6.503,7.383,2.116,14.651,0.739C24.708-1.163,34.235,6.161,35.233,16.37C36.021,24.418,31.284,31.949,23.71,34.689z    M14.229,25.85c-0.006,0.014-0.01,0.024-0.016,0.038c0.018,0.003,0.036,0.006,0.055,0.009   C14.282,25.898,14.294,25.923,14.229,25.85z M9.679,29.031c0.157,0.097,0.307,0.22,0.477,0.273c0.062,0.02,0.177-0.121,0.38-0.271   c-0.282-0.107-0.448-0.201-0.623-0.225C9.845,28.8,9.757,28.953,9.679,29.031z M11.112,29.277c0.023,0.105,0.232,0.236,0.355,0.234   c0.119-0.002,0.235-0.16,0.354-0.25c-0.108-0.099-0.216-0.195-0.548-0.494C11.201,28.975,11.082,29.143,11.112,29.277z    M12.87,28.854c-0.148,0.035-0.273,0.172-0.408,0.266c0.079,0.1,0.158,0.193,0.285,0.35c0.175-0.16,0.294-0.271,0.414-0.379   C13.061,29.004,12.944,28.836,12.87,28.854z M8.512,28.261c0.082,0.155,0.209,0.289,0.381,0.508   c0.115-0.188,0.24-0.332,0.218-0.361c-0.109-0.143-0.257-0.26-0.403-0.367C8.698,28.033,8.495,28.227,8.512,28.261z"
       id="path5"
       style="fill:#ffffff"
       inkscape:export-filename="/home/dcdeiv/Programmazione/simpler-sidebar/assets/icons/github32@64.png"
       inkscape:export-xdpi="163.09"
       inkscape:export-ydpi="163.09" /></g><g
     id="g7" /><g
     id="g9" /><g
     id="g11" /><g
     id="g13" /><g
     id="g15" /><g
     id="g17" /><g
     id="g19" /><g
     id="g21" /><g
     id="g23" /><g
     id="g25" /><g
     id="g27" /><g
     id="g29" /><g
     id="g31" /><g
     id="g33" /><g
     id="g35" /></svg>